Coordinates
version=1
nRows=17
nColumns=24
inDegrees=yes

Units are S.I. units (second, meters, Newtons, ...)
Angles are in degrees.

endheader
time	pelvis_tilt	pelvis_list	pelvis_rotation	pelvis_tx	pelvis_ty	pelvis_tz	hip_flexion_r	hip_adduction_r	hip_rotation_r	knee_angle_r	ankle_angle_r	subtalar_angle_r	mtp_angle_r	hip_flexion_l	hip_adduction_l	hip_rotation_l	knee_angle_l	ankle_angle_l	subtalar_angle_l	mtp_angle_l	lumbar_extension	lumbar_bending	lumbar_rotation
      4.45500000	    -10.21912100	      1.53718422	     -3.29750129	     -1.72374559	     -0.01548408	      0.42032412	     35.55132923	     -2.11107975	     -8.40992917	    -45.93113878	     -9.82711984	    -14.68911893	     10.50154424	      7.02856057	      5.55317382	      7.90689049	    -12.17618852	      4.91629809	     -1.43923872	      5.05402991	      5.54444462	     -0.40263469	     -2.07297140
      4.46000000	    -10.31202959	      1.41076462	     -3.07934451	     -1.71886534	     -0.01579455	      0.42017170	     35.73866268	     -2.03896655	     -8.76758109	    -44.21055950	     -9.37215326	    -13.78955187	     10.86226023	      6.68433877	      5.43355212	      8.00301802	    -11.99881823	      5.13942375	     -1.21230615	      5.08322725	      5.58612346	     -0.32315009	     -2.27510450
      4.46500000	    -10.40624579	      1.28768490	     -2.86238542	     -1.71396894	     -0.01612155	      0.42004020	     35.88721433	     -1.96593088	     -9.10943992	    -42.42118883	     -8.92554633	    -12.82269305	     11.21251061	      6.34538695	      5.31422223	      8.08179347	    -11.82746414	      5.35257925	     -0.98412871	      5.11233287	      5.62838915	     -0.24913548	     -2.47805432
      4.47000000	    -10.49521406	      1.17162542	     -2.64299085	     -1.70906627	     -0.01645743	      0.41991721	     35.99223847	     -1.89842985	     -9.43787369	    -40.56998615	     -8.48768952	    -11.78512536	     11.54059570	      6.00820499	      5.20134236	      8.14812477	    -11.66766163	      5.55921354	     -0.75179575	      5.14316734	      5.66531764	     -0.18247139	     -2.68373147
      4.47500000	    -10.58610324	      1.06134124	     -2.42749066	     -1.70413960	     -0.01680818	      0.41983322	     36.06140618	     -1.82738105	     -9.74663417	    -38.66310526	     -8.08127997	    -10.70440703	     11.82213414	      5.67593410	      5.09050652	      8.20313951	    -11.51324432	      5.75683692	     -0.52484431	      5.17591233	      5.70533019	     -0.12495806	     -2.87613305
      4.48000000	    -10.64297183	      0.96233431	     -2.18968844	     -1.69924166	     -0.01713238	      0.41973023	     36.05786808	     -1.77739513	    -10.04027431	    -36.71133195	     -7.68690970	     -9.54934380	     12.05349976	      5.32982454	      4.99619738	      8.24093512	    -11.39493953	      5.94841366	     -0.28208861	      5.20515315	      5.70191976	     -0.08279655	     -3.12990225
      4.48500000	    -10.73293177	      0.86677663	     -1.98517449	     -1.69422636	     -0.01751605	      0.41968902	     36.05549030	     -1.71218559	    -10.34410479	    -34.72242097	     -7.36105115	     -8.42015474	     12.22485729	      4.99480379	      4.89444493	      8.28708308	    -11.24440746	      6.13133258	     -0.05401825	      5.24583826	      5.75255656	     -0.03908125	     -3.28021568
      4.49000000	    -10.76154393	      0.78759158	     -1.73213498	     -1.68929357	     -0.01783967	      0.41961819	     35.95348045	     -1.68356547	    -10.62761227	    -32.70669616	     -7.05279964	     -7.23338714	     12.32428851	      4.63607098	      4.81745457	      8.32200027	    -11.16015030	      6.30752369	      0.20121852	      5.29275341	      5.71761544	     -0.02325084	     -3.54027572
      4.49500000	    -10.80687971	      0.71493492	     -1.50001092	     -1.68425132	     -0.01820522	      0.41958332	     35.83979809	     -1.64972576	    -10.92422254	    -30.67743463	     -6.81115275	     -6.08868287	     12.36908274	      4.28004813	      4.73999109	      8.35332573	    -11.05871718	      6.47047419	      0.44836517	      5.35513289	      5.71945065	     -0.00890756	     -3.74225812
      4.50000000	    -10.82111914	      0.65342652	     -1.25908974	     -1.67918371	     -0.01854935	      0.41956882	     35.66740342	     -1.62757618	    -11.21615588	    -28.64998648	     -6.62640214	     -4.95805811	     12.33468218	      3.89428352	      4.66975787	      8.40350607	    -10.96801412	      6.62601896	      0.71910876	      5.43450946	      5.69005703	     -0.00853051	     -3.95875005
      4.50500000	    -10.84855644	      0.60326022	     -1.01620103	     -1.67404076	     -0.01893088	      0.41955934	     35.48347933	     -1.61485391	    -11.52351366	    -26.62744618	     -6.48215427	     -3.88925692	     12.29645886	      3.53334496	      4.61049169	      8.42049763	    -10.90058664	      6.75506395	      0.97851725	      5.54487675	      5.68452619	     -0.01677036	     -4.16398655
      4.51000000	    -10.84713204	      0.56254723	     -0.76497206	     -1.66886137	     -0.01929477	      0.41956858	     35.24995857	     -1.61082784	    -11.82467243	    -24.63070107	     -6.38594054	     -2.85712530	     12.20741770	      3.14507507	      4.55489766	      8.45835154	    -10.84528612	      6.87737270	      1.26611481	      5.68494831	      5.65268120	     -0.03602076	     -4.38212938
      4.51500000	    -10.83062228	      0.53020276	     -0.51029666	     -1.66363360	     -0.01965650	      0.41961440	     34.98484532	     -1.61020809	    -12.12409034	    -22.67071804	     -6.32087446	     -1.87302485	     12.08772333	      2.74766130	      4.50092822	      8.49551894	    -10.80737210	      6.98585875	      1.57308541	      5.85413638	      5.61119101	     -0.06817828	     -4.60927352
      4.52000000	    -10.80267969	      0.50452567	     -0.25151223	     -1.65835395	     -0.02002110	      0.41967512	     34.69466676	     -1.61231540	    -12.41192655	    -20.75858295	     -6.27996133	     -0.93825942	     11.94664004	      2.34685934	      4.44829739	      8.53608692	    -10.79220961	      7.08475501	      1.89980724	      6.05360416	      5.56542468	     -0.10509304	     -4.83957191
      4.52500000	    -10.82640690	      0.47871107	     -0.02274629	     -1.65299913	     -0.02047332	      0.41982549	     34.45282571	     -1.58469788	    -12.63961427	    -18.90044691	     -6.28106920	     -0.08814177	     11.82142062	      2.00419564	      4.38513742	      8.60846715	    -10.79925965	      7.17933079	      2.20894438	      6.25888094	      5.58855101	     -0.14322894	     -5.00169335
      4.53000000	    -10.76864429	      0.46305061	      0.27556929	     -1.64763138	     -0.02083280	      0.41989664	     34.10800066	     -1.60731678	    -12.90860989	    -17.11285312	     -6.23977763	      0.76411046	     11.67938705	      1.59980117	      4.33118297	      8.67434228	    -10.84568172	      7.27784770	      2.61150382	      6.53461192	      5.52541656	     -0.19454515	     -5.27527955
      4.53500000	    -10.68683781	      0.44548589	      0.54923792	     -1.64222531	     -0.02116001	      0.41999049	     33.74264566	     -1.61511741	    -13.16223282	    -15.41808182	     -6.24494222	      1.61273435	     11.49325058	      1.17531889	      4.26868339	      8.70181206	    -10.90407763	      7.35096617	      3.02654398	      6.82181402	      5.44073431	     -0.23476600	     -5.55390847
